<?xml version="1.0" encoding="utf-8"?>
<!-- Generator: Adobe Illustrator 18.0.0, SVG Export Plug-In . SVG Version: 6.00 Build 0)  -->
<!DOCTYPE svg PUBLIC "-//W3C//DTD SVG 1.1//EN" "http://www.w3.org/Graphics/SVG/1.1/DTD/svg11.dtd">
<svg version="1.1" id="Layer_1" xmlns="http://www.w3.org/2000/svg" xmlns:xlink="http://www.w3.org/1999/xlink" x="0px" y="0px"
	 viewBox="0 0 102.3 90" enable-background="new 0 0 102.3 90" xml:space="preserve">
<ellipse fill="#6E92CE" stroke="#5372B9" stroke-width="21" stroke-miterlimit="10" cx="-157.9" cy="178.8" rx="94.5" ry="95.4"/>
<rect x="-169.4" y="121.7" fill="#FFFFFF" width="21.7" height="73.3"/>
<rect x="-169.5" y="212.2" fill="#FFFFFF" width="21.8" height="20.3"/>
<g>
	<path fill="#FFFFFF" d="M87,71H8.5C3.8,71,0,67.2,0,62.5V15c0-4.7,3.8-8.5,8.5-8.5H87c4.7,0,8.5,3.8,8.5,8.5v47.5
		C95.5,67.2,91.7,71,87,71z"/>
	<g>
		<path fill="none" d="M15.5,87"/>
		<path fill="none" d="M15.5,71"/>
		<path fill="none" d="M31.5,71"/>
		<path fill="none" d="M15.5,87"/>
	</g>
</g>
<path fill="none" d="M31.5,71"/>
<path fill="none" d="M15.5,71"/>
<polygon fill="#FFFFFF" points="34.5,71 15.5,90 15.5,71 "/>
</svg>
